/* XPM */
static char *xpm_[] = {
/* columns rows colors chars-per-pixel */
"50 50 3 1 ",
"  c black",
". c #D82800",
"X c gray99",
/* pixels */
"                                                  ",
"                                                  ",
"                                                  ",
"                                                  ",
"                                                  ",
"                                                  ",
"                                                  ",
"                                                  ",
"                                                  ",
"                                                  ",
"                                                  ",
"                                                  ",
"                                                  ",
"                                                  ",
"                                                  ",
"                                                  ",
"                                                  ",
"                                                  ",
"                       ....                       ",
"                     ........                     ",
"                    ..........                    ",
"                   ...XX....XX.                   ",
"                   ..XXXX..XXXX                   ",
"                   ..XX  ..XX                     ",
"                  ...XX  ..XX  .                  ",
"                  ....XX....XX..                  ",
"                  ..............                  ",
"                  ..............                  ",
"                  ..............                  ",
"                  ..............                  ",
"                  .... .... ....                  ",
"                   ..   ..   ..                   ",
"                                                  ",
"                                                  ",
"                                                  ",
"                                                  ",
"                                                  ",
"                                                  ",
"                                                  ",
"                                                  ",
"                                                  ",
"                                                  ",
"                                                  ",
"                                                  ",
"                                                  ",
"                                                  ",
"                                                  ",
"                                                  ",
"                                                  ",
"                                                  "
};
