/* XPM */
static char *_6220e27ce4746c6b06873f52cb568f2w2TVQO64D4EuxV0h[] = {
/* columns rows colors chars-per-pixel */
"50 50 4 1 ",
"  c black",
". c #D82800",
"X c gray99",
"o c #F0BC3C",
/* pixels */
"                                                  ",
"                                                  ",
"                                                  ",
"                                                  ",
"                                                  ",
"                                                  ",
"                                                  ",
"                                                  ",
"                                                  ",
"                                                  ",
"                                                  ",
"                                                  ",
"                                                  ",
"                                                  ",
"                                                  ",
"                                                  ",
"                                                  ",
"                                                  ",
"                       ....                       ",
"                     ........                     ",
"                    ..........                    ",
"                   ............                   ",
"                   ..XX....XX..                   ",
"                   .XXXX..XXXX.                   ",
"                  ..XXXX..XXXX..                  ",
"                  ..X  X..X  X..                  ",
"                  ...  ....  ...                  ",
"                  ..............                  ",
"                  ..............                  ",
"                  ..............                  ",
"                  .... .... ....                  ",
"                   ..   ..   ..                   ",
"                 oooooooooooooooo                 ",
"                 oooooooooooooooo                 ",
"                  oooooooooooooo                  ",
"                    oooo  oooo                    ",
"                                                  ",
"                                                  ",
"                                                  ",
"                                                  ",
"                                                  ",
"                                                  ",
"                                                  ",
"                                                  ",
"                                                  ",
"                                                  ",
"                                                  ",
"                                                  ",
"                                                  ",
"                                                  "
};
