/* XPM */
static char *xpm_[] = {
/* columns rows colors chars-per-pixel */
"50 50 6 1 ",
"  c black",
". c #ED1C24",
"X c #F0BC3C",
"o c #2038EC",
"O c #FCBCB0",
"+ c white",
/* pixels */
"                                                  ",
"                                                  ",
"    oooooOOOOOOOOOOOOOOOOOOOOOOOOOOOOOOOOooooo    ",
"   ooooooOOOOOOOOOOOOOOOOOOOOOOOOOOOOOOOOoooooo   ",
"  ooo                                        ooo  ",
"  oo            .                             oo  ",
"  oo            ..                            oo  ",
"  oo           ...                            oo  ",
"  oo           . ..                           oo  ",
"  OO          ..  ..                          OO  ",
"  OO          ...  .. XXXXXXXX                OO  ",
"  OO        .........XXXXXXXXXXXX             OO  ",
"  OO    .......  XXXXXXXXXXXXXXXXXX           OO  ",
"  OO     ..  .. XXXXXXXXXXXXXXXXXXXX          OO  ",
"  OO      .. ..XXXXXXXXXXXX  XXXXXXXX         OO  ",
"  OO       ....XXXXXXXXXXXX +XXXXXXXXX        OO  ",
"  OO        ..XXXXXXXXXXXXXXXXXXXXXXXX.       OO  ",
"  OO        .XXXXXXXXXXXXXXXXXXXXXXX...       OO  ",
"  OO        XXXXXXXXXXXXXXXXXXXXXXX..         OO  ",
"  OO        XXXXXXXXXXXXXXXXXXXXXXX           OO  ",
"  OO        XXXXXXXXXXXXXXXXXXXX              OO  ",
"  OO       XXXXXXXXXXXXXXXXXX                 OO  ",
"  OO       XXXXXXXXXXXXXXXX                   OO  ",
"  OO       XXXXXXXXXXXXXX                     OO  ",
"  OO       XXXXXXXXXXXXX                      OO  ",
"  OO       XXXXXXXXXXXXX                      OO  ",
"  OO       XXXXXXXXXXXXXX                     OO  ",
"  OO       XXXXXXXXXXXXXXXX                   OO  ",
"  OO       XXXXXXXXXXXXXXXXXX                 OO  ",
"  OO        XXXXXXXXXXXXXXXXXXXX              OO  ",
"  OO        XXXXXXXXXXXXXXXXXXXXXXX           OO  ",
"  OO        XXXXXXXXXXXXXXXXXXXXXXX..         OO  ",
"  OO         XXXXXXXXXXXXXXXXXXXXXXX...       OO  ",
"  OO         XXXXXXXXXXXXXXXXXXXXXXXXX.       OO  ",
"  OO          XXXXXXXXXXXXXXXXXXXXXXXX        OO  ",
"  OO           XXXXXXXXXXXXXXXXXXXXXX         OO  ",
"  OO            XXXXXXXXXXXXXXXXXXXX          OO  ",
"  OO             XXXXXXXXXXXXXXXXXX           OO  ",
"  OO               XXXXXXXXXXXXXX             OO  ",
"  OO                  XXXXXXXX                OO  ",
"  OO                                          OO  ",
"  oo                                          oo  ",
"  oo                                          oo  ",
"  oo                                          oo  ",
"  oo                                          oo  ",
"  ooo                                        ooo  ",
"   ooooooOOOOOOOOOOOOOOOOOOOOOOOOOOOOOOOOoooooo   ",
"    oooooOOOOOOOOOOOOOOOOOOOOOOOOOOOOOOOOooooo    ",
"                                                  ",
"                                                  "
};
