/* XPM */
static char *exitmsp3active1715368251[] = {
/* columns rows colors chars-per-pixel */
"50 50 4 1 ",
"  c black",
". c #ED1C24",
"X c #F0BC3C",
"o c white",
/* pixels */
"                                                  ",
"                                                  ",
"    ooooo                                ooooo    ",
"   oooooo                                oooooo   ",
"  ooo                                        ooo  ",
"  oo            .                             oo  ",
"  oo            ..                            oo  ",
"  oo           ...                            oo  ",
"  oo           ....                           oo  ",
"              ......                              ",
"              ....... XXXXXXXX                    ",
"            .........XXXXXXXXXXXX                 ",
"        .......  XXXXXXXXXXXXXXXXXX               ",
"         ...... XXXXXXXXXXXXXXXXXXXX              ",
"          .....XXXXXXXXXXXX  XXXXXXXX             ",
"           ....XXXXXXXXXXXX oXXXXXXXXX            ",
"            ..XXXXXXXXXXXXXXXXXXXXXXXX.           ",
"            X.XXXXXXXXXXXXXXXXXXXXXX...           ",
"            XXXXXXXXXXXXXXXXXXXXXXX..             ",
"            XXXXXXXXXXXXXXXXXXXXXXX               ",
"            XXXXXXXXXXXXXXXXXXXX                  ",
"           XXXXXXXXXXXXXXXXXX                     ",
"           XXXXXXXXXXXXXXXX                       ",
"           XXXXXXXXXXXXXX                         ",
"           XXXXXXXXXXXXX                          ",
"           XXXXXXXXXXXXX                          ",
"           XXXXXXXXXXXXXX                         ",
"           XXXXXXXXXXXXXXXX                       ",
"           XXXXXXXXXXXXXXXXXX                     ",
"            XXXXXXXXXXXXXXXXXXXX                  ",
"            XXXXXXXXXXXXXXXXXXXXXXX               ",
"            XXXXXXXXXXXXXXXXXXXXXXX..             ",
"             XXXXXXXXXXXXXXXXXXXXXXX...           ",
"             XXXXXXXXXXXXXXXXXXXXXXXXX.           ",
"              XXXXXXXXXXXXXXXXXXXXXXXX            ",
"               XXXXXXXXXXXXXXXXXXXXXX             ",
"                XXXXXXXXXXXXXXXXXXXX              ",
"                 XXXXXXXXXXXXXXXXXX               ",
"                   XXXXXXXXXXXXXX                 ",
"                      XXXXXXXX                    ",
"                                                  ",
"  oo                                          oo  ",
"  oo                                          oo  ",
"  oo                                          oo  ",
"  oo                                          oo  ",
"  ooo                                        ooo  ",
"   oooooo                                oooooo   ",
"    ooooo                                ooooo    ",
"                                                  ",
"                                                  "
};
