/* XPM */
static char *xpm_[] = {
/* columns rows colors chars-per-pixel */
"50 50 2 1 ",
"  c black",
". c #F0BC3C",
/* pixels */
"                                                  ",
"                                                  ",
"                                                  ",
"                                                  ",
"                                                  ",
"                                                  ",
"                                                  ",
"                                                  ",
"                                                  ",
"                                                  ",
"                    ........                      ",
"                 ..............                   ",
"               ..................                 ",
"              ....................                ",
"             ......................               ",
"            ........................              ",
"           ..........................             ",
"           ..........................             ",
"             .........................            ",
"               .......................            ",
"                  ....................            ",
"                     ..................           ",
"                       ................           ",
"                         ..............           ",
"                          .............           ",
"                          .............           ",
"                         ..............           ",
"                       ................           ",
"                     ..................           ",
"                  ....................            ",
"               .......................            ",
"             .........................            ",
"           ..........................             ",
"           ..........................             ",
"            ........................              ",
"             ......................               ",
"              ....................                ",
"               ..................                 ",
"                 ..............                   ",
"                    ........                      ",
"                                                  ",
"                                                  ",
"                                                  ",
"                                                  ",
"                                                  ",
"                                                  ",
"                                                  ",
"                                                  ",
"                                                  ",
"                                                  "
};
