/* XPM */
static char *caa7dcc0f57c4f2ae77d374423bfac8ajBw5TtkZjty71rOl[] = {
/* columns rows colors chars-per-pixel */
"50 50 2 1 ",
"  c black",
". c #2038EC",
/* pixels */
"                                                  ",
"                                                  ",
"    ..........................................    ",
"   ............................................   ",
"  ...                                        ...  ",
"  ..                                          ..  ",
"  ..                                          ..  ",
"  ..                                          ..  ",
"  ..                                          ..  ",
"  ..                                          ..  ",
"  ..                                          ..  ",
"  ..                                          ..  ",
"  ..                                          ..  ",
"  ..                                          ..  ",
"  ..                                          ..  ",
"  ..                                          ..  ",
"  ..                                          ..  ",
"  ..                                          ..  ",
"  ..                                          ..  ",
"  ..                                          ..  ",
"  ..                                          ..  ",
"  ..                                          ..  ",
"  ..                                          ..  ",
"  ..                                          ..  ",
"  ..                                          ..  ",
"  ..                                          ..  ",
"  ..                                          ..  ",
"  ..                                          ..  ",
"  ..                                          ..  ",
"  ..                                          ..  ",
"  ..                                          ..  ",
"  ..                                          ..  ",
"  ..                                          ..  ",
"  ..                                          ..  ",
"  ..                                          ..  ",
"  ..                                          ..  ",
"  ..                                          ..  ",
"  ..                                          ..  ",
"  ..                                          ..  ",
"  ..                                          ..  ",
"  ..                                          ..  ",
"  ..                                          ..  ",
"  ..                                          ..  ",
"  ..                                          ..  ",
"  ..                                          ..  ",
"  ...                                        ...  ",
"   ............................................   ",
"    ..........................................    ",
"                                                  ",
"                                                  "
};
