/* XPM */
static char *_b004b04b70646c09262aea63bcd488bWiEa5UpcJq9nbfwo[] = {
/* columns rows colors chars-per-pixel */
"50 50 2 1 ",
"  c black",
". c #2038EC",
/* pixels */
"                                                  ",
"                                                  ",
"    ..........................................    ",
"   .                                          .   ",
"  .                                            .  ",
"  .                                            .  ",
"  .                                            .  ",
"  .                                            .  ",
"  .                                            .  ",
"  .                                            .  ",
"  .                                            .  ",
"  .                                            .  ",
"  .                                            .  ",
"  .                                            .  ",
"  .                                            .  ",
"  .                                            .  ",
"  .                                            .  ",
"  .                                            .  ",
"  .                                            .  ",
"  .                                            .  ",
"  .                                            .  ",
"  .                                            .  ",
"  .                                            .  ",
"  .                                            .  ",
"  .                                            .  ",
"  .                                            .  ",
"  .                                            .  ",
"  .                                            .  ",
"  .                                            .  ",
"  .                                            .  ",
"  .                                            .  ",
"  .                                            .  ",
"  .                                            .  ",
"  .                                            .  ",
"  .                                            .  ",
"  .                                            .  ",
"  .                                            .  ",
"  .                                            .  ",
"  .                                            .  ",
"  .                                            .  ",
"  .                                            .  ",
"  .                                            .  ",
"  .                                            .  ",
"  .                                            .  ",
"  .                                            .  ",
"  .                                            .  ",
"   .                                          .   ",
"    ..........................................    ",
"                                                  ",
"                                                  "
};
