/* XPM */
static char *_3bc8ccf2fe943908306ad825c9255ffOnQh3i8NqLVtC5xd[] = {
/* columns rows colors chars-per-pixel */
"150 50 3 1 ",
"  c black",
". c #2038EC",
"X c gray99",
/* pixels */
"                                                                                                                                                      ",
"                                                                                                                                                      ",
"    ..............................................................................................................................................    ",
"   ................................................................................................................................................   ",
"  ...                                                                                                                                            ...  ",
"  ..                                                                                                                                              ..  ",
"  ..                                                                                                                                              ..  ",
"  ..                                                                                                                                              ..  ",
"  ..                                                                                                                                              ..  ",
"  ..                                                                                                                                              ..  ",
"  ..                                                                                                                                              ..  ",
"  ..                                                                                                                                              ..  ",
"  ..                                                                                                                                              ..  ",
"  ..                                                                                                                                              ..  ",
"  ..                                                                                                                                              ..  ",
"  ..                                                                                                                                              ..  ",
"  ..                                      XXXXX   XXX   XX   XX XXXXXXX    XXXXX  XX   XX XXXXXXX XXXXXX                                          ..  ",
"  ..                                     XX      XX XX  XXX XXX XX        XX   XX XX   XX XX      XX   XX                                         ..  ",
"  ..                                    XX      XX   XX XXXXXXX XX        XX   XX XX   XX XX      XX   XX                                         ..  ",
"  ..                                    XX  XXX XX   XX XXXXXXX XXXXXX    XX   XX XXX XXX XXXXXX  XX  XXX                                         ..  ",
"  ..                                    XX   XX XXXXXXX XX X XX XX        XX   XX  XXXXX  XX      XXXXX                                           ..  ",
"  ..                                     XX  XX XX   XX XX   XX XX        XX   XX   XXX   XX      XX XXX                                          ..  ",
"  ..                                      XXXXX XX   XX XX   XX XXXXXXX    XXXXX     X    XXXXXXX XX  XXX                                         ..  ",
"  ..                                                                                                                                              ..  ",
"  ..                                                                                                                                              ..  ",
"  ..                                                                                                                                              ..  ",
"  ..                                                                                                                                              ..  ",
"  ..                                                                                                                                              ..  ",
"  ..                                                                                                                                              ..  ",
"  ..                                                                                                                                              ..  ",
"  ..                                                                                                                                              ..  ",
"  ..                                                                                                                                              ..  ",
"  ..                                                                                                                                              ..  ",
"  ..                                                                                                                                              ..  ",
"  ..                                                                                                                                              ..  ",
"  ..                                                                                                                                              ..  ",
"  ..                                                                                                                                              ..  ",
"  ..                                                                                                                                              ..  ",
"  ..                                                                                                                                              ..  ",
"  ..                                                                                                                                              ..  ",
"  ..                                                                                                                                              ..  ",
"  ..                                                                                                                                              ..  ",
"  ..                                                                                                                                              ..  ",
"  ..                                                                                                                                              ..  ",
"  ..                                                                                                                                              ..  ",
"  ...                                                                                                                                            ...  ",
"   ................................................................................................................................................   ",
"    ..............................................................................................................................................    ",
"                                                                                                                                                      ",
"                                                                                                                                                      "
};
