/* XPM */
static char *_474f8b43b254733e0d70d9ddf21d9cdlLMpiqxR0Uk4IrTg[] = {
/* columns rows colors chars-per-pixel */
"150 50 3 1 ",
"  c black",
". c #2038EC",
"X c gray99",
/* pixels */
"                                                                                                                                                      ",
"                                                                                                                                                      ",
"    ..............................................................................................................................................    ",
"   ................................................................................................................................................   ",
"  ...                                                                                                                                            ...  ",
"  ..                                                                                                                                              ..  ",
"  ..                XX   XX XXXXXX XX   XX XX   XX XXXXXXX XXXXXX    XX   XX XXXXXX XX   XX XX   XX XXXXXXX XXXXXX                                ..  ",
"  ..                XX   XX   XX   XXX  XX XXX  XX XX      XX   XX   XX   XX   XX   XXX  XX XXX  XX XX      XX   XX                               ..  ",
"  ..                XX X XX   XX   XXXX XX XXXX XX XX      XX   XX   XX X XX   XX   XXXX XX XXXX XX XX      XX   XX                               ..  ",
"  ..                XXXXXXX   XX   XXXXXXX XXXXXXX XXXXXX  XX  XXX   XXXXXXX   XX   XXXXXXX XXXXXXX XXXXXX  XX  XXX                               ..  ",
"  ..                XXXXXXX   XX   XX XXXX XX XXXX XX      XXXXX     XXXXXXX   XX   XX XXXX XX XXXX XX      XXXXX                                 ..  ",
"  ..                XXX XXX   XX   XX  XXX XX  XXX XX      XX XXX    XXX XXX   XX   XX  XXX XX  XXX XX      XX XXX                                ..  ",
"  ..                XX   XX XXXXXX XX   XX XX   XX XXXXXXX XX  XXX   XX   XX XXXXXX XX   XX XX   XX XXXXXXX XX  XXX                               ..  ",
"  ..                                                                                                                                              ..  ",
"  ..                                                                                                                                              ..  ",
"  ..                          XXXX  XX   XX XXXXXX   XXXX  XX   XX XXXXXXX XX   XX   XXXXX   XXXXXX XX   XX XX   XX XXXXXXX XXXXXX  XX            ..  ",
"  ..                         XX  XX XX   XX   XX    XX  XX XX  XX  XX      XXX  XX   XX  XX    XX   XXX  XX XXX  XX XX      XX   XX XX            ..  ",
"  ..                        XX      XX   XX   XX   XX      XX XX   XX      XXXX XX   XX   XX   XX   XXXX XX XXXX XX XX      XX   XX XX            ..  ",
"  ..                        XX      XXXXXXX   XX   XX      XXXX    XXXXXX  XXXXXXX   XX   XX   XX   XXXXXXX XXXXXXX XXXXXX  XX  XXX XX            ..  ",
"  ..                        XX      XX   XX   XX   XX      XXXXX   XX      XX XXXX   XX   XX   XX   XX XXXX XX XXXX XX      XXXXX   XX            ..  ",
"  ..                         XX  XX XX   XX   XX    XX  XX XX  XX  XX      XX  XXX   XX  XX    XX   XX  XXX XX  XXX XX      XX XXX                ..  ",
"  ..                          XXXX  XX   XX XXXXXX   XXXX  XX   XX XXXXXXX XX   XX   XXXXX   XXXXXX XX   XX XX   XX XXXXXXX XX  XXX XX            ..  ",
"  ..                                                                                                                                              ..  ",
"  ..                                                                                                                                              ..  ",
"  ..                                                                                                                                              ..  ",
"  ..                                                                                                                                              ..  ",
"  ..                                                                                                                                              ..  ",
"  ..                                                                                                                                              ..  ",
"  ..                                                                                                                                              ..  ",
"  ..                                                                                                                                              ..  ",
"  ..                                                                                                                                              ..  ",
"  ..                                                                                                                                              ..  ",
"  ..                                                                                                                                              ..  ",
"  ..                                                                                                                                              ..  ",
"  ..                                                                                                                                              ..  ",
"  ..                                                                                                                                              ..  ",
"  ..                                                                                                                                              ..  ",
"  ..                                                                                                                                              ..  ",
"  ..                                                                                                                                              ..  ",
"  ..                                                                                                                                              ..  ",
"  ..                                                                                                                                              ..  ",
"  ..                                                                                                                                              ..  ",
"  ..                                                                                                                                              ..  ",
"  ..                                                                                                                                              ..  ",
"  ..                                                                                                                                              ..  ",
"  ...                                                                                                                                            ...  ",
"   ................................................................................................................................................   ",
"    ..............................................................................................................................................    ",
"                                                                                                                                                      ",
"                                                                                                                                                      "
};
